<svg width="50" height="50" viewBox="0 0 50 50" fill="none" xmlns="http://www.w3.org/2000/svg">
<circle cx="25" cy="25" r="25" fill="white"/>
<path d="M38.9091 25.5205V38.8862C38.9091 39.5157 38.3637 40 37.6546 40H12.4001C11.691 40 11.1455 39.5157 11.1455 38.8862V25.5205" stroke="url(#paint0_linear_305_2)" stroke-width="1.5"/>
<path fill-rule="evenodd" clip-rule="evenodd" d="M40 24.3581C40 24.9876 39.4545 25.4719 38.7455 25.4719H11.2545C10.5455 25.4719 10 24.9876 10 24.3581V19.3702C10 18.7406 10.5455 18.2563 11.2545 18.2563H38.7455C39.4545 18.2563 40 18.7406 40 19.3702V24.3581Z" stroke="url(#paint1_linear_305_2)" stroke-width="1.5"/>
<path fill-rule="evenodd" clip-rule="evenodd" d="M33.0725 14.7216C31.8725 15.7869 26.418 18.8862 25.1635 17.8208C23.9635 16.7555 27.4544 11.8644 28.6544 10.799C29.8544 9.73366 31.818 9.73366 33.0725 10.799C34.2725 11.8644 34.2725 13.6562 33.0725 14.7216Z" stroke="url(#paint2_linear_305_2)" stroke-width="1.5"/>
<path fill-rule="evenodd" clip-rule="evenodd" d="M16.8727 14.7215C18.0727 15.7869 23.5817 18.9346 24.7817 17.8692C25.9817 16.8038 22.4908 11.9128 21.2363 10.8474C20.0363 9.782 18.0727 9.782 16.8727 10.8474C15.6727 11.8643 15.6727 13.6077 16.8727 14.7215Z" stroke="url(#paint3_linear_305_2)" stroke-width="1.5"/>
<path d="M21.2358 22.1793C21.2358 22.1793 22.054 19.9517 25.2177 18.8379V39.9518" stroke="url(#paint4_linear_305_2)" stroke-width="1.5"/>
<path d="M25 18.8862C25 18.8862 26.2545 22.7603 30.6182 23.3415" stroke="url(#paint5_linear_305_2)" stroke-width="1.5"/>
<defs>
<linearGradient id="paint0_linear_305_2" x1="25.0273" y1="25.5205" x2="25.0273" y2="40" gradientUnits="userSpaceOnUse">
<stop stop-color="#FFCF26"/>
<stop offset="0.536458" stop-color="#D9BE5F"/>
<stop offset="1" stop-color="#C49E19"/>
</linearGradient>
<linearGradient id="paint1_linear_305_2" x1="25" y1="18.2563" x2="25" y2="25.4719" gradientUnits="userSpaceOnUse">
<stop stop-color="#FFCF26"/>
<stop offset="0.536458" stop-color="#D9BE5F"/>
<stop offset="1" stop-color="#C49E19"/>
</linearGradient>
<linearGradient id="paint2_linear_305_2" x1="29.4443" y1="10" x2="29.4443" y2="18.0405" gradientUnits="userSpaceOnUse">
<stop stop-color="#FFCF26"/>
<stop offset="0.536458" stop-color="#D9BE5F"/>
<stop offset="1" stop-color="#C49E19"/>
</linearGradient>
<linearGradient id="paint3_linear_305_2" x1="20.5008" y1="10.0483" x2="20.5008" y2="18.0862" gradientUnits="userSpaceOnUse">
<stop stop-color="#FFCF26"/>
<stop offset="0.536458" stop-color="#D9BE5F"/>
<stop offset="1" stop-color="#C49E19"/>
</linearGradient>
<linearGradient id="paint4_linear_305_2" x1="23.2267" y1="18.8379" x2="23.2267" y2="39.9518" gradientUnits="userSpaceOnUse">
<stop stop-color="#FFCF26"/>
<stop offset="0.536458" stop-color="#D9BE5F"/>
<stop offset="1" stop-color="#C49E19"/>
</linearGradient>
<linearGradient id="paint5_linear_305_2" x1="27.8091" y1="18.8862" x2="27.8091" y2="23.3415" gradientUnits="userSpaceOnUse">
<stop stop-color="#FFCF26"/>
<stop offset="0.536458" stop-color="#D9BE5F"/>
<stop offset="1" stop-color="#C49E19"/>
</linearGradient>
</defs>
</svg>
