<svg width="50" height="50" viewBox="0 0 50 50" fill="none" xmlns="http://www.w3.org/2000/svg">
<circle cx="25" cy="25" r="25" fill="white"/>
<path d="M33.182 22.2495C33.9351 22.2495 34.5456 21.6339 34.5456 20.8745C34.5456 20.1151 33.9351 19.4995 33.182 19.4995C32.4289 19.4995 31.8184 20.1151 31.8184 20.8745C31.8184 21.6339 32.4289 22.2495 33.182 22.2495Z" fill="url(#paint0_linear_103_126)"/>
<path d="M17.8796 16.062C18.0473 16.062 18.1823 15.9396 18.1823 15.787V14.962C18.1823 14.8107 18.0473 14.687 17.8796 14.687H15.7578C15.5901 14.687 15.4551 14.8094 15.4551 14.962V15.787C15.4551 15.9382 15.5901 16.062 15.7578 16.062H17.8796Z" fill="url(#paint1_linear_103_126)"/>
<path d="M25.6813 31.8746C29.0699 31.8746 31.8177 29.1039 31.8177 25.6871C31.8177 22.2701 29.0699 19.4995 25.6813 19.4995C22.2927 19.4995 19.5449 22.2701 19.5449 25.6871C19.5449 29.1039 22.2927 31.8746 25.6813 31.8746ZM25.6813 20.8745C28.3172 20.8745 30.454 23.0292 30.454 25.6871C30.454 28.3448 28.3172 30.4995 25.6813 30.4995C23.0454 30.4995 20.9085 28.3448 20.9085 25.6871C20.9085 23.0292 23.0454 20.8745 25.6813 20.8745Z" fill="url(#paint2_linear_103_126)"/>
<path d="M10 19.5V33.25C10 36 12.7273 36 12.7273 36H37.2727C37.2727 36 40 36 40 33.25V19.5C40 16.75 37.2727 16.75 37.2727 16.75H32.0909L30.6427 14.3176C30.5391 14.1416 30.2882 14 30.0918 14H21.2718C21.0714 14 20.8218 14.1471 20.7209 14.3176L19.2727 16.75H12.7273C12.7273 16.7499 10 16.7499 10 19.5ZM20.1918 18.125L21.7109 15.3749H29.5218L31.2495 18.125H37.2577C37.2577 18.125 38.6363 18.125 38.6363 19.5247V33.2238C38.6363 34.625 37.2577 34.625 37.2577 34.625H12.7423C12.7423 34.625 11.3636 34.625 11.3636 33.2238V19.5247C11.3636 18.125 12.7423 18.125 12.7423 18.125H20.1918Z" fill="url(#paint3_linear_103_126)"/>
<defs>
<linearGradient id="paint0_linear_103_126" x1="33.182" y1="19.4995" x2="33.182" y2="22.2495" gradientUnits="userSpaceOnUse">
<stop stop-color="#FFCF26"/>
<stop offset="0.5" stop-color="#D9BE5F"/>
<stop offset="1" stop-color="#C49E19"/>
</linearGradient>
<linearGradient id="paint1_linear_103_126" x1="16.8187" y1="14.687" x2="16.8187" y2="16.062" gradientUnits="userSpaceOnUse">
<stop stop-color="#FFCF26"/>
<stop offset="0.5" stop-color="#D9BE5F"/>
<stop offset="1" stop-color="#C49E19"/>
</linearGradient>
<linearGradient id="paint2_linear_103_126" x1="25.6813" y1="19.4995" x2="25.6813" y2="31.8746" gradientUnits="userSpaceOnUse">
<stop stop-color="#FFCF26"/>
<stop offset="0.5" stop-color="#D9BE5F"/>
<stop offset="1" stop-color="#C49E19"/>
</linearGradient>
<linearGradient id="paint3_linear_103_126" x1="25" y1="14" x2="25" y2="36" gradientUnits="userSpaceOnUse">
<stop stop-color="#FFCF26"/>
<stop offset="0.5" stop-color="#D9BE5F"/>
<stop offset="1" stop-color="#C49E19"/>
</linearGradient>
</defs>
</svg>
