<svg width="30" height="22" viewBox="0 0 30 22" fill="none" xmlns="http://www.w3.org/2000/svg">
<path d="M23.182 8.24949C23.9351 8.24949 24.5456 7.63388 24.5456 6.8745C24.5456 6.11511 23.9351 5.49951 23.182 5.49951C22.4289 5.49951 21.8184 6.11511 21.8184 6.8745C21.8184 7.63388 22.4289 8.24949 23.182 8.24949Z" fill="url(#paint0_linear_103_126)"/>
<path d="M7.87959 2.06195C8.04733 2.06195 8.18233 1.93957 8.18233 1.78698V0.96198C8.18233 0.81073 8.04733 0.687012 7.87959 0.687012H5.75777C5.59008 0.687012 5.45508 0.809396 5.45508 0.96198V1.78698C5.45508 1.93823 5.59008 2.06195 5.75777 2.06195H7.87959Z" fill="url(#paint1_linear_103_126)"/>
<path d="M15.6813 17.8746C19.0699 17.8746 21.8177 15.1039 21.8177 11.6871C21.8177 8.27015 19.0699 5.49951 15.6813 5.49951C12.2927 5.49951 9.54492 8.27015 9.54492 11.6871C9.54492 15.1039 12.2927 17.8746 15.6813 17.8746ZM15.6813 6.87455C18.3172 6.87455 20.454 9.02916 20.454 11.6871C20.454 14.3448 18.3172 16.4995 15.6813 16.4995C13.0454 16.4995 10.9085 14.3448 10.9085 11.6871C10.9085 9.02916 13.0454 6.87455 15.6813 6.87455Z" fill="url(#paint2_linear_103_126)"/>
<path d="M0 5.49995V19.25C0 22 2.72726 22 2.72726 22H27.2727C27.2727 22 30 22 30 19.25V5.49995C30 2.74998 27.2727 2.74998 27.2727 2.74998H22.0909L20.6427 0.317624C20.5391 0.141611 20.2882 0 20.0918 0H11.2718C11.0714 0 10.8218 0.147147 10.7209 0.317624L9.2727 2.74998H2.72726C2.72726 2.74993 0 2.74993 0 5.49995ZM10.1918 4.12496L11.7109 1.37494H19.5218L21.2495 4.12496H27.2577C27.2577 4.12496 28.6363 4.12496 28.6363 5.52471V19.2238C28.6363 20.625 27.2577 20.625 27.2577 20.625H2.74225C2.74225 20.625 1.36363 20.625 1.36363 19.2238V5.52471C1.36363 4.12496 2.74225 4.12496 2.74225 4.12496H10.1918Z" fill="url(#paint3_linear_103_126)"/>
<defs>
<linearGradient id="paint0_linear_103_126" x1="23.182" y1="5.49951" x2="23.182" y2="8.24949" gradientUnits="userSpaceOnUse">
<stop stop-color="#FFCF26"/>
<stop offset="0.5" stop-color="#D9BE5F"/>
<stop offset="1" stop-color="#C49E19"/>
</linearGradient>
<linearGradient id="paint1_linear_103_126" x1="6.81871" y1="0.687012" x2="6.81871" y2="2.06195" gradientUnits="userSpaceOnUse">
<stop stop-color="#FFCF26"/>
<stop offset="0.5" stop-color="#D9BE5F"/>
<stop offset="1" stop-color="#C49E19"/>
</linearGradient>
<linearGradient id="paint2_linear_103_126" x1="15.6813" y1="5.49951" x2="15.6813" y2="17.8746" gradientUnits="userSpaceOnUse">
<stop stop-color="#FFCF26"/>
<stop offset="0.5" stop-color="#D9BE5F"/>
<stop offset="1" stop-color="#C49E19"/>
</linearGradient>
<linearGradient id="paint3_linear_103_126" x1="15" y1="0" x2="15" y2="22" gradientUnits="userSpaceOnUse">
<stop stop-color="#FFCF26"/>
<stop offset="0.5" stop-color="#D9BE5F"/>
<stop offset="1" stop-color="#C49E19"/>
</linearGradient>
</defs>
</svg>
