<svg width="37" height="34" viewBox="0 0 37 34" fill="none" xmlns="http://www.w3.org/2000/svg">
<path d="M23.7903 28.0488C22.6892 28.7244 22.217 30.0386 22.7116 31.1742C22.7161 31.1865 22.7251 31.1968 22.7318 31.2071C22.7362 31.2194 22.7362 31.2338 22.743 31.2461C23.1973 32.2256 24.3095 32.8745 25.4711 32.8211C26.6617 32.7657 27.7068 32.0285 28.0604 30.9812C28.4162 29.9298 27.9776 28.7839 27.0309 28.1268C26.1022 27.4861 24.7571 27.4573 23.7903 28.0488ZM26.3551 28.4574C27.1585 28.8496 27.6374 29.6813 27.4987 30.515C27.3577 31.357 26.646 32.0223 25.7374 32.1845C24.7213 32.3652 23.75 31.8231 23.3405 30.9791C23.0227 30.207 23.1995 29.3404 23.8687 28.7654C24.5289 28.1966 25.5516 28.0652 26.3551 28.4574ZM2.44894 13.822C3.47841 14.2225 4.5146 14.6126 5.54631 15.0069C9.14946 16.3848 12.7526 17.7627 16.3558 19.1386C17.3047 19.502 18.2558 19.8655 19.2047 20.229C19.2069 20.229 19.2069 20.229 19.2069 20.229C19.3502 20.2988 19.5046 20.3481 19.6613 20.3851C20.6952 22.6911 21.7314 24.9972 22.7653 27.3033C21.3979 28.3363 20.8608 30.09 21.5277 31.6219C21.5322 31.6362 21.5434 31.6424 21.5501 31.6547C21.5546 31.6691 21.5523 31.6814 21.5591 31.6937C22.2215 33.1271 23.8329 34.0717 25.5337 33.9957C27.257 33.9177 28.7698 32.8417 29.2801 31.3303C29.7926 29.8127 29.1727 28.1432 27.8008 27.1924C26.9795 26.6236 25.9433 26.3875 24.9384 26.4758C24.0589 24.5126 23.1771 22.5495 22.2976 20.5884C24.4684 21.418 26.6393 22.2496 28.8124 23.0793C28.7296 23.8062 28.8638 24.5537 29.2465 25.2272C30.0433 26.6257 31.7665 27.4245 33.4629 27.2068C35.1526 26.9891 36.5714 25.7858 36.9161 24.2477C37.3077 22.5022 36.2984 20.7116 34.5147 20.0031C34.4991 19.9969 34.4879 19.999 34.4722 19.9949C34.4566 19.9867 34.4476 19.9764 34.4319 19.9702C32.8586 19.3912 30.9922 19.7608 29.8485 20.921C29.7971 20.9724 29.759 21.0299 29.712 21.0833C27.1742 20.114 24.6363 19.1427 22.1007 18.1734C22.0537 17.9968 21.982 17.8284 21.8836 17.6703C21.8746 17.6559 21.8657 17.6436 21.8567 17.6292C21.8522 17.6128 21.85 17.5964 21.8433 17.582C19.5673 12.5057 17.289 7.42945 15.0107 2.35111C14.1939 0.529646 12.1461 -0.525859 10.0514 0.266796C9.86114 0.338669 9.84099 0.498843 9.91485 0.628215C9.91932 0.646696 9.91709 0.663124 9.92604 0.681606C12.0946 5.51557 14.2632 10.3475 16.4319 15.1815C12.0118 13.4914 7.59182 11.8014 3.16957 10.1113C2.34152 9.79509 1.51347 9.47885 0.685414 9.16056C0.497423 9.08868 0.360906 9.18725 0.309433 9.32689C0.298243 9.34332 0.284815 9.35359 0.275863 9.37412C-0.549952 11.1935 0.566801 13.093 2.44894 13.822ZM10.6579 0.722676C12.0544 0.34483 13.5896 0.991686 14.223 2.19504C14.3259 2.39218 14.411 2.59959 14.5005 2.80083C14.9906 3.89535 15.4829 4.98782 15.9731 6.08234C17.383 9.22832 18.7952 12.3743 20.2051 15.5182C20.3908 15.933 20.5788 16.3499 20.7646 16.7647C20.6281 16.7216 20.4893 16.6949 20.3461 16.6785C19.3278 16.2883 18.3095 15.9002 17.2935 15.5121C15.371 11.2305 13.4509 6.94893 11.5284 2.6653C11.2375 2.01844 10.9466 1.36953 10.6579 0.722676ZM34.2216 20.5473C35.5353 21.0894 36.4014 22.2702 36.3409 23.6111C36.2805 24.9254 35.2913 26.102 33.9239 26.4901C32.5185 26.8885 30.9407 26.4183 30.0858 25.3135C29.2555 24.2416 29.2398 22.7938 30.0276 21.7014C30.9407 20.4343 32.7087 20.0093 34.2216 20.5473ZM28.9332 22.4694C26.5386 21.5535 24.1439 20.6376 21.7493 19.7218C21.9306 19.5082 22.0626 19.2577 22.123 18.9887C22.1342 18.9414 22.1342 18.8922 22.1409 18.8429C24.5378 19.7608 26.9369 20.6767 29.3338 21.5925C29.1637 21.8738 29.025 22.1655 28.9332 22.4694ZM26.9571 27.4204C28.2394 28.0447 28.9914 29.3815 28.7631 30.704C28.5349 32.0264 27.4114 33.0819 25.9813 33.3366C24.37 33.622 22.8034 32.7759 22.1588 31.4247C21.6486 30.2029 21.9395 28.8147 22.9936 27.9071C24.0499 26.9994 25.6769 26.7961 26.9571 27.4204ZM23.3204 26.9501C22.3446 24.7775 21.3711 22.6049 20.3953 20.4323C20.4132 20.4302 20.4334 20.4323 20.4513 20.4282C20.7198 20.3912 20.975 20.2988 21.2032 20.1694C21.2816 20.1982 21.3599 20.229 21.4382 20.2577C22.3849 22.3667 23.3293 24.4736 24.276 26.5826C23.9425 26.6647 23.6247 26.792 23.3204 26.9501ZM21.5054 18.6601C21.4807 19.1673 21.0936 19.6314 20.5632 19.7813C20.0149 19.9374 19.4016 19.7649 19.057 19.3357C18.7146 18.9086 18.7124 18.3315 19.0301 17.8941C19.3927 17.3931 20.0842 17.2473 20.6751 17.4506C21.192 17.6744 21.53 18.1241 21.5054 18.6601ZM18.0074 16.4403C18.4326 16.6025 18.8578 16.7647 19.283 16.929C19.0525 17.0276 18.8377 17.1631 18.6654 17.3397C18.164 17.849 18.0051 18.5677 18.2446 19.2063C13.236 17.2925 8.22965 15.3765 3.22105 13.4627C2.97711 13.3703 2.72869 13.284 2.48923 13.1834C1.09496 12.5981 0.387762 11.1874 0.795075 9.86081C6.53326 12.054 12.2714 14.2471 18.0074 16.4403ZM30.7997 21.7096C30.0007 22.5187 29.8284 23.7138 30.3812 24.6831C30.9317 25.6503 32.1268 26.1965 33.2973 26.0425C34.4521 25.8905 35.4256 25.065 35.6628 24.0116C35.9314 22.8164 35.251 21.574 34.0246 21.0874C34.009 21.0812 33.9911 21.0791 33.9754 21.075C33.9642 21.0689 33.9552 21.0607 33.9441 21.0566C32.8676 20.6602 31.5807 20.9169 30.7997 21.7096ZM33.7292 21.6315C34.555 21.9786 35.1011 22.7137 35.0608 23.5618C35.0228 24.3832 34.4006 25.1246 33.5457 25.3669C32.6639 25.6174 31.6747 25.3299 31.1331 24.6358C30.6005 23.9582 30.5938 23.0423 31.0929 22.3482C31.668 21.5535 32.7781 21.2989 33.7292 21.6315Z" fill="url(#paint0_linear_103_147)"/>
<defs>
<linearGradient id="paint0_linear_103_147" x1="18.5" y1="0" x2="18.5" y2="34" gradientUnits="userSpaceOnUse">
<stop stop-color="#FFD74B"/>
<stop offset="0.520833" stop-color="#D7B333"/>
<stop offset="1" stop-color="#B09227"/>
</linearGradient>
</defs>
</svg>
