<svg width="50" height="50" viewBox="0 0 50 50" fill="none" xmlns="http://www.w3.org/2000/svg">
<circle cx="25" cy="25" r="25" fill="white"/>
<path d="M29.7903 35.0488C28.6892 35.7244 28.217 37.0386 28.7116 38.1742C28.7161 38.1865 28.7251 38.1968 28.7318 38.2071C28.7362 38.2194 28.7362 38.2338 28.743 38.2461C29.1973 39.2256 30.3095 39.8745 31.4711 39.8211C32.6617 39.7657 33.7068 39.0285 34.0604 37.9812C34.4162 36.9298 33.9776 35.7839 33.0309 35.1268C32.1022 34.4861 30.7571 34.4573 29.7903 35.0488ZM32.3551 35.4574C33.1585 35.8496 33.6374 36.6813 33.4987 37.515C33.3577 38.357 32.646 39.0223 31.7374 39.1845C30.7213 39.3652 29.75 38.8231 29.3405 37.9791C29.0227 37.207 29.1995 36.3404 29.8687 35.7654C30.5289 35.1966 31.5516 35.0652 32.3551 35.4574ZM8.44894 20.822C9.47841 21.2225 10.5146 21.6126 11.5463 22.0069C15.1495 23.3848 18.7526 24.7627 22.3558 26.1386C23.3047 26.502 24.2558 26.8655 25.2047 27.229C25.2069 27.229 25.2069 27.229 25.2069 27.229C25.3502 27.2988 25.5046 27.3481 25.6613 27.3851C26.6952 29.6911 27.7314 31.9972 28.7653 34.3033C27.3979 35.3363 26.8608 37.09 27.5277 38.6219C27.5322 38.6362 27.5434 38.6424 27.5501 38.6547C27.5546 38.6691 27.5523 38.6814 27.5591 38.6937C28.2215 40.1271 29.8329 41.0717 31.5337 40.9957C33.257 40.9177 34.7698 39.8417 35.2801 38.3303C35.7926 36.8127 35.1727 35.1432 33.8008 34.1924C32.9795 33.6236 31.9433 33.3875 30.9384 33.4758C30.0589 31.5126 29.1771 29.5495 28.2976 27.5884C30.4684 28.418 32.6393 29.2496 34.8124 30.0793C34.7296 30.8062 34.8638 31.5537 35.2465 32.2272C36.0433 33.6257 37.7665 34.4245 39.4629 34.2068C41.1526 33.9891 42.5714 32.7858 42.9161 31.2477C43.3077 29.5022 42.2984 27.7116 40.5147 27.0031C40.4991 26.9969 40.4879 26.999 40.4722 26.9949C40.4566 26.9867 40.4476 26.9764 40.4319 26.9702C38.8586 26.3912 36.9922 26.7608 35.8485 27.921C35.7971 27.9724 35.759 28.0299 35.712 28.0833C33.1742 27.114 30.6363 26.1427 28.1007 25.1734C28.0537 24.9968 27.982 24.8284 27.8836 24.6703C27.8746 24.6559 27.8657 24.6436 27.8567 24.6292C27.8522 24.6128 27.85 24.5964 27.8433 24.582C25.5673 19.5057 23.289 14.4294 21.0107 9.35111C20.1939 7.52965 18.1461 6.47414 16.0514 7.2668C15.8611 7.33867 15.841 7.49884 15.9148 7.62821C15.9193 7.6467 15.9171 7.66312 15.926 7.68161C18.0946 12.5156 20.2632 17.3475 22.4319 22.1815C18.0118 20.4914 13.5918 18.8014 9.16957 17.1113C8.34152 16.7951 7.51347 16.4789 6.68541 16.1606C6.49742 16.0887 6.36091 16.1873 6.30943 16.3269C6.29824 16.3433 6.28482 16.3536 6.27586 16.3741C5.45005 18.1935 6.5668 20.093 8.44894 20.822ZM16.6579 7.72268C18.0544 7.34483 19.5896 7.99169 20.223 9.19504C20.3259 9.39218 20.411 9.59959 20.5005 9.80083C20.9906 10.8954 21.4829 11.9878 21.9731 13.0823C23.383 16.2283 24.7952 19.3743 26.2051 22.5182C26.3908 22.933 26.5788 23.3499 26.7646 23.7647C26.6281 23.7216 26.4893 23.6949 26.3461 23.6785C25.3278 23.2883 24.3095 22.9002 23.2935 22.5121C21.371 18.2305 19.4509 13.9489 17.5284 9.6653C17.2375 9.01844 16.9466 8.36953 16.6579 7.72268ZM40.2216 27.5473C41.5353 28.0894 42.4014 29.2702 42.3409 30.6111C42.2805 31.9254 41.2913 33.102 39.9239 33.4901C38.5185 33.8885 36.9407 33.4183 36.0858 32.3135C35.2555 31.2416 35.2398 29.7938 36.0276 28.7014C36.9407 27.4343 38.7087 27.0093 40.2216 27.5473ZM34.9332 29.4694C32.5386 28.5535 30.1439 27.6376 27.7493 26.7218C27.9306 26.5082 28.0626 26.2577 28.123 25.9887C28.1342 25.9414 28.1342 25.8922 28.1409 25.8429C30.5378 26.7608 32.9369 27.6767 35.3338 28.5925C35.1637 28.8738 35.025 29.1655 34.9332 29.4694ZM32.9571 34.4204C34.2394 35.0447 34.9914 36.3815 34.7631 37.704C34.5349 39.0264 33.4114 40.0819 31.9813 40.3366C30.37 40.622 28.8034 39.7759 28.1588 38.4247C27.6486 37.2029 27.9395 35.8147 28.9936 34.9071C30.0499 33.9994 31.6769 33.7961 32.9571 34.4204ZM29.3204 33.9501C28.3446 31.7775 27.3711 29.6049 26.3953 27.4323C26.4132 27.4302 26.4334 27.4323 26.4513 27.4282C26.7198 27.3912 26.975 27.2988 27.2032 27.1694C27.2816 27.1982 27.3599 27.229 27.4382 27.2577C28.3849 29.3667 29.3293 31.4736 30.276 33.5826C29.9425 33.6647 29.6247 33.792 29.3204 33.9501ZM27.5054 25.6601C27.4807 26.1673 27.0936 26.6314 26.5632 26.7813C26.0149 26.9374 25.4016 26.7649 25.057 26.3357C24.7146 25.9086 24.7124 25.3315 25.0301 24.8941C25.3927 24.3931 26.0842 24.2473 26.6751 24.4506C27.192 24.6744 27.53 25.1241 27.5054 25.6601ZM24.0074 23.4403C24.4326 23.6025 24.8578 23.7647 25.283 23.929C25.0525 24.0276 24.8377 24.1631 24.6654 24.3397C24.164 24.849 24.0051 25.5677 24.2446 26.2063C19.236 24.2925 14.2296 22.3765 9.22105 20.4627C8.97711 20.3703 8.72869 20.284 8.48923 20.1834C7.09496 19.5981 6.38776 18.1874 6.79507 16.8608C12.5333 19.054 18.2714 21.2471 24.0074 23.4403ZM36.7997 28.7096C36.0007 29.5187 35.8284 30.7138 36.3812 31.6831C36.9317 32.6503 38.1268 33.1965 39.2973 33.0425C40.4521 32.8905 41.4256 32.065 41.6628 31.0116C41.9314 29.8164 41.251 28.574 40.0246 28.0874C40.009 28.0812 39.9911 28.0791 39.9754 28.075C39.9642 28.0689 39.9552 28.0607 39.9441 28.0566C38.8676 27.6602 37.5807 27.9169 36.7997 28.7096ZM39.7292 28.6315C40.555 28.9786 41.1011 29.7137 41.0608 30.5618C41.0228 31.3832 40.4006 32.1246 39.5457 32.3669C38.6639 32.6174 37.6747 32.3299 37.1331 31.6358C36.6005 30.9582 36.5938 30.0423 37.0929 29.3482C37.668 28.5535 38.7781 28.2989 39.7292 28.6315Z" fill="url(#paint0_linear_305_3)"/>
<defs>
<linearGradient id="paint0_linear_305_3" x1="24.5" y1="7" x2="24.5" y2="41" gradientUnits="userSpaceOnUse">
<stop stop-color="#FFD74B"/>
<stop offset="0.520833" stop-color="#D7B333"/>
<stop offset="1" stop-color="#B09227"/>
</linearGradient>
</defs>
</svg>
